<svg width="24" height="24" viewBox="0 0 24 24" fill="none" xmlns="http://www.w3.org/2000/svg">
<path d="M1.99951 1.22168C3.96853 1.22168 5.06139 2.30795 5.52832 3.22119H21.999C22.2294 3.22119 22.4489 3.32426 22.5967 3.50098C22.7443 3.6778 22.8061 3.91157 22.7651 4.13818L20.7642 15.1348C20.7496 15.2177 20.7208 15.2946 20.6821 15.3662C20.675 15.3796 20.6681 15.3929 20.6602 15.4058C20.645 15.4304 20.6281 15.4534 20.6104 15.4761C20.5979 15.492 20.5859 15.508 20.5723 15.5229C20.5568 15.5398 20.5408 15.5558 20.5239 15.5713C20.5047 15.5889 20.4847 15.6054 20.4639 15.6211C20.4472 15.6335 20.4302 15.6452 20.4126 15.6562C20.3887 15.6713 20.3634 15.6834 20.3379 15.6958C20.3194 15.7048 20.3015 15.7146 20.2822 15.7222C20.2552 15.7328 20.2271 15.7395 20.1987 15.7471C20.182 15.7515 20.166 15.7584 20.1489 15.7617C20.1008 15.7712 20.0515 15.7777 20.001 15.7778H5.23096C4.43951 15.7779 3.94463 15.9531 3.6665 16.1631C3.41658 16.3521 3.27844 16.6143 3.27832 16.9995C3.27832 17.385 3.41648 17.6483 3.6665 17.8374C3.94468 18.0474 4.43973 18.2226 5.23096 18.2227H19.5C20.758 18.2227 21.7778 19.2425 21.7778 20.5005C21.7776 21.7582 20.7578 22.7783 19.5 22.7783C18.2422 22.7783 17.2224 21.7582 17.2222 20.5005C17.2222 20.2479 17.2649 20.0054 17.3408 19.7783H11.6587C11.7346 20.0054 11.7773 20.2479 11.7773 20.5005C11.7771 21.7582 10.7573 22.7783 9.49951 22.7783C8.24187 22.7781 7.22195 21.7581 7.22168 20.5005C7.22168 20.2479 7.26439 20.0054 7.34033 19.7783H5.23096C4.23918 19.7783 3.36873 19.5615 2.72754 19.0767C2.0585 18.5705 1.72266 17.8327 1.72266 16.9995C1.72279 16.1664 2.05839 15.4285 2.72754 14.9224C3.36872 14.4376 4.23924 14.2222 5.23096 14.2222H6.06738L4.24219 4.18066C4.13874 3.78461 3.56449 2.77734 1.99951 2.77734C1.57013 2.77715 1.22168 2.42894 1.22168 1.99951C1.22195 1.57031 1.57029 1.22188 1.99951 1.22168Z" fill="black"/>
</svg>
