<svg width="24" height="24" viewBox="0 0 24 24" fill="none" xmlns="http://www.w3.org/2000/svg">
<path d="M17.001 21.2227C17.4301 21.2231 17.7793 21.5717 17.7793 22.001C17.7788 22.4298 17.4298 22.7779 17.001 22.7783H7.00098C6.57175 22.7783 6.22319 22.4301 6.22266 22.001C6.22266 21.5714 6.57142 21.2227 7.00098 21.2227H17.001ZM19.9248 1.22168C21.4997 1.22168 22.7771 2.49941 22.7773 4.07422V16.9248C22.7773 18.4998 21.4998 19.7773 19.9248 19.7773H4.07422C2.49935 19.7771 1.22168 18.4997 1.22168 16.9248V4.07422C1.22195 2.49954 2.49952 1.22188 4.07422 1.22168H19.9248ZM12 5.72266C9.36147 5.72285 7.22168 7.8624 7.22168 10.501C7.22192 11.8023 7.74329 12.984 8.58691 13.8447C9.45306 14.7283 10.6638 15.2772 12 15.2773C14.6382 15.2771 16.7768 13.1391 16.7773 10.501C16.7773 9.19932 16.2559 8.01721 15.4121 7.15625C14.546 6.27274 13.3362 5.72279 12 5.72266ZM14.7734 8.86719C15.0564 9.34653 15.2217 9.90383 15.2217 10.501C15.2212 12.28 13.7791 13.7214 12 13.7217C11.3805 13.7216 10.8036 13.5442 10.3125 13.2412L14.7734 8.86719ZM12 7.27832C12.6184 7.27841 13.194 7.4548 13.6846 7.75684L9.22461 12.1309C8.94265 11.6523 8.77751 11.0968 8.77734 10.501C8.77734 8.72151 10.2206 7.27852 12 7.27832Z" fill="black"/>
</svg>
