<svg width="24" height="24" viewBox="0 0 24 24" fill="none" xmlns="http://www.w3.org/2000/svg">
<path d="M17.7498 3.99939H19.9002C20.2315 3.99939 20.5007 4.26862 20.5007 4.59998V14.3998C20.5007 14.7312 20.2315 15.0004 19.9002 15.0004H17.7498V3.99939Z" fill="black"/>
<path d="M12.7078 20.4877C12.1229 21.4624 10.7445 21.5555 10.0344 20.6678C9.70011 20.2497 9.59223 19.6939 9.74586 19.181L10.7683 15.7723C10.8838 15.3874 10.5959 15.0005 10.1941 15.0004H5.6194C4.30065 15.0004 3.34175 13.7458 3.68873 12.4735L5.59889 5.47449C5.83619 4.60436 6.62618 3.99939 7.52809 3.99939H16.2498V14.9989C16.2498 15.0675 16.2633 15.1335 16.2805 15.1967C15.9286 15.363 15.6246 15.6268 15.4177 15.9716L12.7078 20.4877Z" fill="black"/>
</svg>
