<svg width="24" height="24" viewBox="0 0 24 24" fill="none" xmlns="http://www.w3.org/2000/svg">
<path d="M6.25049 20.0006H4.1001C3.76874 20.0006 3.49953 19.7314 3.49951 19.4V9.60021C3.49951 9.26884 3.76873 8.99963 4.1001 8.99963H6.25049V20.0006Z" fill="black"/>
<path d="M11.2925 3.51232C11.8773 2.53759 13.2557 2.44451 13.9658 3.33215C14.3001 3.75032 14.408 4.3061 14.2544 4.81896L13.2319 8.22765C13.1165 8.61257 13.4043 8.99953 13.8062 8.99963H18.3809C19.6996 8.99963 20.6585 10.2542 20.3115 11.5265L18.4014 18.5255C18.1641 19.3956 17.3741 20.0006 16.4722 20.0006H7.75049V9.00109C7.75049 8.93249 7.73698 8.86647 7.71973 8.80334C8.07163 8.637 8.37567 8.37319 8.58252 8.02844L11.2925 3.51232Z" fill="black"/>
</svg>
